<?xml version="1.0" encoding="iso-8859-1"?>
<!-- Uploaded to: SVG Repo, www.svgrepo.com, Generator: SVG Repo Mixer Tools -->
<!DOCTYPE svg PUBLIC "-//W3C//DTD SVG 1.1//EN" "http://www.w3.org/Graphics/SVG/1.1/DTD/svg11.dtd">
<svg height="1000px" width="1000px" version="1.1" id="Capa_1" xmlns="http://www.w3.org/2000/svg" xmlns:xlink="http://www.w3.org/1999/xlink" 
	 viewBox="0 0 44.295 44.295" xml:space="preserve">
<g>
	<path fill="currentColor" d="M15.577,12.453c-1.717-3.312-3.281-6.33-4.859-9.376c0.495-0.585,0.935-0.991,1.236-1.483
		c0.825-1.351,1.882-1.49,3.011-0.517c1.688,1.457,3.255,1.258,4.856-0.093c1.874-1.579,3.927-1.017,5.648,0.012
		c2.56,1.531,4.889,1.633,7.316-0.061c0.165-0.115,0.351-0.291,0.524-0.287c0.666,0.016,1.544-0.14,1.93,0.217
		c0.336,0.311,0.351,1.339,0.1,1.85c-0.875,1.781-1.927,3.475-2.811,5.026c1.123,0.665,2.629,1.138,3.438,2.161
		c0.722,0.914,0.995,2.464,0.891,3.684c-0.16,1.858-2.132,2.296-6.376,1.392c1.541,1.785,2.722,3.253,4.006,4.624
		c3.871,4.13,5.94,9.005,6.303,14.649c0.263,4.09-1.65,8.313-6.964,8.923c-3.186,0.366-6.396,0.531-9.601,0.707
		c-3.104,0.171-6.222,0.143-9.321,0.371C6.577,44.864,4.053,39.015,3.523,33.141c-0.362-4.011,1.734-7.153,3.96-10.166
		C10.051,19.5,12.748,16.118,15.577,12.453z M26.126,12.292c-1.408,0.174-2.496,0.309-3.585,0.442
		c-2.595,0.317-4.752,1.284-6.355,3.531c-1.573,2.204-3.489,4.16-5.145,6.31c-1.9,2.467-3.727,4.976-4.439,8.133
		c-0.767,3.397,1.034,8.784,3.899,10.024c1.666,0.721,3.697,0.848,5.559,0.823c4.423-0.058,8.844-0.349,13.264-0.583
		c1.199-0.063,2.392-0.255,3.587-0.401c3.911-0.482,5.116-3.126,4.891-6.671c-0.294-4.597-2.413-8.427-5.314-11.9
		C30.052,19.084,27.225,16.426,26.126,12.292z M30.636,4.84c-3.435,0.775-5.637-1.338-8.243-2.367
		c-2.133,1.993-4.646,2.525-7.515,2.008c3.239,7.043,3.696,7.315,10.087,5.147C27.244,8.855,29.234,7.527,30.636,4.84z
		 M33.941,13.334c-0.71-2.544-0.71-2.544-2.726-1.848C32.127,12.106,32.892,12.624,33.941,13.334z"/>
	<path fill="currentColor" d="M21.249,17.582c1.245,0.807,2.142,1.543,3.162,2.011c1.414,0.647,1.733,1.928,2.008,3.175
		c0.117,0.533-0.173,1.415-0.591,1.752c-0.724,0.585-1.533,0.271-2.026-0.549c-0.291-0.482-0.518-1.004-1.034-2.024
		c-0.377,3.107-0.287,5.338,2.183,6.893c0.805,0.506,1.416,1.444,1.908,2.304c1.335,2.336,0.758,4.414-1.5,5.956
		c-0.824,0.563-1.574,1.243-2.432,1.746c-0.473,0.276-1.314,0.599-1.615,0.381c-1.488-1.071-2.975-2.204-4.212-3.546
		c-0.68-0.735-1.402-1.993-0.231-2.955c1.509-1.24,2.024,0.399,3.053,1.44c0.257-2.821,0.579-5.215-1.855-7.212
		c-1.922-1.577-1.96-3.026-0.497-5.005C18.735,20.375,20.092,18.942,21.249,17.582z M22.721,31.702
		c0.166,1.065,0.332,2.132,0.577,3.709C25.152,33.467,23.955,32.583,22.721,31.702z"/>
</g>
</svg>